<svg width="24" height="24" viewBox="0 0 24 24" fill="none" xmlns="http://www.w3.org/2000/svg">
<path d="M20.6607 0H2.47929C1.11051 0 0 1.11051 0 2.47929V20.6607C0 22.0295 1.11051 23.14 2.47929 23.14H20.6607C22.0295 23.14 23.14 22.0295 23.14 20.6607V2.47929C23.14 1.11051 22.0295 0 20.6607 0ZM14.323 19.8188C13.8892 19.8963 13.729 19.6277 13.729 19.4056C13.729 19.1267 13.7394 17.7011 13.7394 16.5492C13.7394 15.7435 13.4708 15.2321 13.1557 14.9635C15.0668 14.7517 17.0812 14.4883 17.0812 11.1878C17.0812 10.2477 16.7455 9.77768 16.198 9.17336C16.2858 8.95125 16.5802 8.03702 16.1102 6.84903C15.3922 6.62692 13.7497 7.77359 13.7497 7.77359C13.0679 7.58248 12.3293 7.48434 11.601 7.48434C10.8727 7.48434 10.1341 7.58248 9.45228 7.77359C9.45228 7.77359 7.80975 6.62692 7.09179 6.84903C6.62176 8.03185 6.91101 8.94609 7.00398 9.17336C6.45647 9.77768 6.19821 10.2477 6.19821 11.1878C6.19821 14.4728 8.12483 14.7517 10.0359 14.9635C9.78801 15.1856 9.56591 15.5678 9.48843 16.1154C8.99774 16.3375 7.7426 16.7197 6.99365 15.3974C6.52362 14.5813 5.67653 14.5142 5.67653 14.5142C4.83977 14.5038 5.61971 15.041 5.61971 15.041C6.17755 15.2993 6.57011 16.291 6.57011 16.291C7.07113 17.825 9.46777 17.3085 9.46777 17.3085C9.46777 18.0265 9.4781 19.1938 9.4781 19.4056C9.4781 19.6277 9.32315 19.8963 8.88411 19.8188C5.47509 18.6773 3.08878 15.4336 3.08878 11.6423C3.08878 6.90068 6.71473 3.30055 11.4564 3.30055C16.198 3.30055 20.0409 6.90068 20.0409 11.6423C20.0461 15.4336 17.7321 18.6825 14.323 19.8188ZM9.256 16.6629C9.15786 16.6835 9.06489 16.6422 9.05456 16.5751C9.04423 16.4976 9.11137 16.4304 9.20951 16.4098C9.30765 16.3994 9.40062 16.4408 9.41095 16.5079C9.42645 16.5751 9.3593 16.6422 9.256 16.6629ZM8.76531 16.6164C8.76531 16.6835 8.68783 16.7403 8.58453 16.7403C8.47089 16.7507 8.39341 16.6939 8.39341 16.6164C8.39341 16.5492 8.47089 16.4924 8.5742 16.4924C8.67233 16.4821 8.76531 16.5389 8.76531 16.6164ZM8.05768 16.5596C8.03702 16.6267 7.93371 16.6577 7.84591 16.6267C7.74777 16.606 7.68062 16.5286 7.70128 16.4614C7.72194 16.3943 7.82525 16.3633 7.91305 16.3839C8.01636 16.4149 8.0835 16.4924 8.05768 16.5596ZM7.42236 16.2806C7.37587 16.3375 7.27774 16.3271 7.20026 16.2497C7.12278 16.1825 7.10212 16.0844 7.15377 16.0379C7.20026 15.9811 7.2984 15.9914 7.37587 16.0689C7.44302 16.136 7.46885 16.2393 7.42236 16.2806ZM6.95233 15.8106C6.90584 15.8416 6.81804 15.8106 6.76122 15.7331C6.7044 15.6557 6.7044 15.5678 6.76122 15.5317C6.81804 15.4852 6.90584 15.5214 6.95233 15.5988C7.00915 15.6763 7.00915 15.7693 6.95233 15.8106V15.8106ZM6.61659 15.3096C6.57011 15.3561 6.49263 15.3302 6.43581 15.2786C6.379 15.2114 6.36866 15.134 6.41515 15.0978C6.46164 15.0513 6.53912 15.0772 6.59593 15.1288C6.65275 15.196 6.66308 15.2734 6.61659 15.3096ZM6.27053 14.9274C6.24987 14.9739 6.18272 14.9842 6.1259 14.948C6.05875 14.917 6.02776 14.8602 6.04842 14.8137C6.06908 14.7827 6.1259 14.7672 6.19305 14.7931C6.2602 14.8292 6.29119 14.886 6.27053 14.9274Z" fill="#DA5C5C"/>
</svg>
