<svg width="24" height="24" viewBox="0 0 24 24" fill="none" xmlns="http://www.w3.org/2000/svg">
<g clip-path="url(#clip0)">
<path d="M9.22093 11.8254C9.4469 12.1078 9.81317 12.1078 10.0391 11.8254L10.4481 11.3142C10.674 11.0317 10.674 10.5739 10.4481 10.2914L9.15657 8.6775L10.4477 7.06312C10.6737 6.78065 10.6737 6.32282 10.4477 6.04035L10.0388 5.52919C9.81281 5.24672 9.44654 5.24672 9.22057 5.52919L7.11121 8.16589C6.88523 8.44836 6.88523 8.90619 7.11121 9.18866L9.22093 11.8254V11.8254ZM12.6923 11.3146L13.1012 11.8258C13.3272 12.1083 13.6935 12.1083 13.9194 11.8258L16.0288 9.18911C16.2548 8.90664 16.2548 8.44881 16.0288 8.16634L13.9194 5.52965C13.6935 5.24718 13.3272 5.24718 13.1012 5.52965L12.6923 6.04081C12.4663 6.32328 12.4663 6.7811 12.6923 7.06357L13.9834 8.6775L12.6923 10.2919C12.4663 10.5743 12.4663 11.0322 12.6923 11.3146V11.3146ZM22.5615 18.8012H13.7951C13.7683 19.6966 13.2632 20.2475 12.6113 20.2475H10.413C9.73724 20.2475 9.21912 19.4579 9.22816 18.8012H0.5785C0.260325 18.8012 0 19.1267 0 19.5244V20.2475C0 21.8384 1.0413 23.14 2.314 23.14H20.826C22.0987 23.14 23.14 21.8384 23.14 20.2475V19.5244C23.14 19.1267 22.8797 18.8012 22.5615 18.8012ZM20.826 2.16937C20.826 0.976219 20.045 0 19.0905 0H4.0495C3.09497 0 2.314 0.976219 2.314 2.16937V17.355H20.826V2.16937ZM18.512 14.4625H4.628V2.8925H18.512V14.4625Z" fill="#DA5C5C"/>
</g>
<defs>
<clipPath id="clip0">
<rect width="23.14" height="23.14" fill="white"/>
</clipPath>
</defs>
</svg>
